<svg width="550" height="72" viewBox="0 0 550 72" fill="none" xmlns="http://www.w3.org/2000/svg">
<path d="M63.6705 25.625H48.7386C48.4659 23.6932 47.9091 21.9773 47.0682 20.4773C46.2273 18.9545 45.1477 17.6591 43.8295 16.5909C42.5114 15.5227 40.9886 14.7045 39.2614 14.1364C37.5568 13.5682 35.7045 13.2841 33.7045 13.2841C30.0909 13.2841 26.9432 14.1818 24.2614 15.9773C21.5795 17.75 19.5 20.3409 18.0227 23.75C16.5455 27.1364 15.8068 31.25 15.8068 36.0909C15.8068 41.0682 16.5455 45.25 18.0227 48.6364C19.5227 52.0227 21.6136 54.5795 24.2955 56.3068C26.9773 58.0341 30.0795 58.8977 33.6023 58.8977C35.5795 58.8977 37.4091 58.6364 39.0909 58.1136C40.7955 57.5909 42.3068 56.8295 43.625 55.8295C44.9432 54.8068 46.0341 53.5682 46.8977 52.1136C47.7841 50.6591 48.3977 49 48.7386 47.1364L63.6705 47.2045C63.2841 50.4091 62.3182 53.5 60.7727 56.4773C59.25 59.4318 57.1932 62.0795 54.6023 64.4205C52.0341 66.7386 48.9659 68.5795 45.3977 69.9432C41.8523 71.2841 37.8409 71.9545 33.3636 71.9545C27.1364 71.9545 21.5682 70.5455 16.6591 67.7273C11.7727 64.9091 7.90909 60.8295 5.06818 55.4886C2.25 50.1477 0.840909 43.6818 0.840909 36.0909C0.840909 28.4773 2.27273 22 5.13636 16.6591C8 11.3182 11.8864 7.25 16.7955 4.45455C21.7045 1.63636 27.2273 0.22727 33.3636 0.22727C37.4091 0.22727 41.1591 0.795452 44.6136 1.93182C48.0909 3.06818 51.1705 4.72727 53.8523 6.90909C56.5341 9.06818 58.7159 11.7159 60.3977 14.8523C62.1023 17.9886 63.1932 21.5795 63.6705 25.625ZM138.415 36.0909C138.415 43.7045 136.972 50.1818 134.085 55.5227C131.222 60.8636 127.313 64.9432 122.358 67.7614C117.426 70.5568 111.881 71.9545 105.722 71.9545C99.517 71.9545 93.9489 70.5455 89.017 67.7273C84.0852 64.9091 80.1875 60.8295 77.3239 55.4886C74.4602 50.1477 73.0284 43.6818 73.0284 36.0909C73.0284 28.4773 74.4602 22 77.3239 16.6591C80.1875 11.3182 84.0852 7.25 89.017 4.45455C93.9489 1.63636 99.517 0.22727 105.722 0.22727C111.881 0.22727 117.426 1.63636 122.358 4.45455C127.313 7.25 131.222 11.3182 134.085 16.6591C136.972 22 138.415 28.4773 138.415 36.0909ZM123.449 36.0909C123.449 31.1591 122.71 27 121.233 23.6136C119.778 20.2273 117.722 17.6591 115.062 15.9091C112.403 14.1591 109.29 13.2841 105.722 13.2841C102.153 13.2841 99.0398 14.1591 96.3807 15.9091C93.7216 17.6591 91.6534 20.2273 90.1761 23.6136C88.7216 27 87.9943 31.1591 87.9943 36.0909C87.9943 41.0227 88.7216 45.1818 90.1761 48.5682C91.6534 51.9545 93.7216 54.5227 96.3807 56.2727C99.0398 58.0227 102.153 58.8977 105.722 58.8977C109.29 58.8977 112.403 58.0227 115.062 56.2727C117.722 54.5227 119.778 51.9545 121.233 48.5682C122.71 45.1818 123.449 41.0227 123.449 36.0909ZM210.952 25.625H196.02C195.747 23.6932 195.19 21.9773 194.349 20.4773C193.509 18.9545 192.429 17.6591 191.111 16.5909C189.793 15.5227 188.27 14.7045 186.543 14.1364C184.838 13.5682 182.986 13.2841 180.986 13.2841C177.372 13.2841 174.224 14.1818 171.543 15.9773C168.861 17.75 166.781 20.3409 165.304 23.75C163.827 27.1364 163.088 31.25 163.088 36.0909C163.088 41.0682 163.827 45.25 165.304 48.6364C166.804 52.0227 168.895 54.5795 171.577 56.3068C174.259 58.0341 177.361 58.8977 180.884 58.8977C182.861 58.8977 184.69 58.6364 186.372 58.1136C188.077 57.5909 189.588 56.8295 190.906 55.8295C192.224 54.8068 193.315 53.5682 194.179 52.1136C195.065 50.6591 195.679 49 196.02 47.1364L210.952 47.2045C210.565 50.4091 209.599 53.5 208.054 56.4773C206.531 59.4318 204.474 62.0795 201.884 64.4205C199.315 66.7386 196.247 68.5795 192.679 69.9432C189.134 71.2841 185.122 71.9545 180.645 71.9545C174.418 71.9545 168.849 70.5455 163.94 67.7273C159.054 64.9091 155.19 60.8295 152.349 55.4886C149.531 50.1477 148.122 43.6818 148.122 36.0909C148.122 28.4773 149.554 22 152.418 16.6591C155.281 11.3182 159.168 7.25 164.077 4.45455C168.986 1.63636 174.509 0.22727 180.645 0.22727C184.69 0.22727 188.44 0.795452 191.895 1.93182C195.372 3.06818 198.452 4.72727 201.134 6.90909C203.815 9.06818 205.997 11.7159 207.679 14.8523C209.384 17.9886 210.474 21.5795 210.952 25.625ZM221.537 71V1.18182H236.298V31.9659H237.219L262.344 1.18182H280.037L254.128 32.4432L280.344 71H262.685L243.56 42.2955L236.298 51.1591V71H221.537ZM285.065 13.3523V1.18182H342.406V13.3523H321.031V71H306.44V13.3523H285.065ZM355.352 71H339.534L363.636 1.18182H382.659L406.727 71H390.909L373.42 17.1364H372.875L355.352 71ZM354.364 43.5568H391.727V55.0795H354.364V43.5568ZM429.892 1.18182V71H415.131V1.18182H429.892ZM442.037 71V1.18182H456.798V58.8295H486.73V71H442.037ZM534.381 21.2614C534.108 18.5114 532.938 16.375 530.869 14.8523C528.801 13.3295 525.994 12.5682 522.449 12.5682C520.04 12.5682 518.006 12.9091 516.347 13.5909C514.688 14.25 513.415 15.1705 512.528 16.3523C511.665 17.5341 511.233 18.875 511.233 20.375C511.188 21.625 511.449 22.7159 512.017 23.6477C512.608 24.5795 513.415 25.3864 514.438 26.0682C515.46 26.7273 516.642 27.3068 517.983 27.8068C519.324 28.2841 520.756 28.6932 522.278 29.0341L528.551 30.5341C531.597 31.2159 534.392 32.125 536.938 33.2614C539.483 34.3977 541.688 35.7955 543.551 37.4545C545.415 39.1136 546.858 41.0682 547.881 43.3182C548.926 45.5682 549.46 48.1477 549.483 51.0568C549.46 55.3295 548.369 59.0341 546.21 62.1705C544.074 65.2841 540.983 67.7045 536.938 69.4318C532.915 71.1364 528.063 71.9886 522.381 71.9886C516.744 71.9886 511.835 71.125 507.653 69.3977C503.494 67.6705 500.244 65.1136 497.903 61.7273C495.585 58.3182 494.369 54.1023 494.256 49.0795H508.54C508.699 51.4205 509.369 53.375 510.551 54.9432C511.756 56.4886 513.358 57.6591 515.358 58.4545C517.381 59.2273 519.665 59.6136 522.21 59.6136C524.71 59.6136 526.881 59.25 528.722 58.5227C530.585 57.7955 532.028 56.7841 533.051 55.4886C534.074 54.1932 534.585 52.7045 534.585 51.0227C534.585 49.4545 534.119 48.1364 533.188 47.0682C532.278 46 530.938 45.0909 529.165 44.3409C527.415 43.5909 525.267 42.9091 522.722 42.2955L515.119 40.3864C509.233 38.9545 504.585 36.7159 501.176 33.6705C497.767 30.625 496.074 26.5227 496.097 21.3636C496.074 17.1364 497.199 13.4432 499.472 10.2841C501.767 7.125 504.915 4.65909 508.915 2.88636C512.915 1.11363 517.46 0.22727 522.551 0.22727C527.733 0.22727 532.256 1.11363 536.119 2.88636C540.006 4.65909 543.028 7.125 545.188 10.2841C547.347 13.4432 548.46 17.1023 548.528 21.2614H534.381Z" fill="url(#paint0_linear_109_2)"/>
<defs>
<linearGradient id="paint0_linear_109_2" x1="-4" y1="94" x2="554" y2="94" gradientUnits="userSpaceOnUse">
<stop stop-color="#E4AF25"/>
<stop offset="0.521339" stop-color="#682399"/>
<stop offset="0.979866" stop-color="#0E0E25"/>
</linearGradient>
</defs>
</svg>
